# xmcd
#
# Track frame offsets: 
#        150
#        17691
#        27078
#        46231
#        59030
#        63565
#        71822
#        79151
#        93569
#        108182
#        122901
#        133292
#        148893
#        160399
#        166635
#        177183
#        191906
#        208083
#
# Disc length: 2964 seconds
#
# Revision: 0
# Processed by: cddbd v1.5.2PL0 Copyright (c) Steve Scherf et al.
# Submitted via: ExactAudioCopy v0.99pb4
#
DISCID=0f0b9212
DTITLE=Pieter Draijer - Pieter Draijer
DYEAR=2007
DGENRE=Blues
TTITLE0=Memphis 
TTITLE1=Vestapol 
TTITLE2=Vigilante Man 
TTITLE3=Lazy Bones 
TTITLE4=La Carraterra 
TTITLE5=Sixty Minute Man 
TTITLE6=Workin' in a Coalmine 
TTITLE7=Diddy Wah Diddy 
TTITLE8=Brownsville
TTITLE9=One Meatball 
TTITLE10=Delta Blues 
TTITLE11=Axe Sweet Mama 
TTITLE12=Police Dog Blues 
TTITLE13=Great Dreams from Heaven 
TTITLE14=Take a Whiff 
TTITLE15=Down the River 
TTITLE16=Jailhouse
TTITLE17=Mr. Railroad Man 
EXTD=
EXTT0=
EXTT1=
EXTT2=
EXTT3=
EXTT4=
EXTT5=
EXTT6=
EXTT7=
EXTT8=
EXTT9=
EXTT10=
EXTT11=
EXTT12=
EXTT13=
EXTT14=
EXTT15=
EXTT16=
EXTT17=
PLAYORDER=
